<?xml version="1.0" encoding="UTF-8" standalone="no"?>
<!-- Created with Inkscape (http://www.inkscape.org/) -->

<svg
   xmlns:dc="http://purl.org/dc/elements/1.1/"
   xmlns:cc="http://creativecommons.org/ns#"
   xmlns:rdf="http://www.w3.org/1999/02/22-rdf-syntax-ns#"
   xmlns:svg="http://www.w3.org/2000/svg"
   xmlns="http://www.w3.org/2000/svg"
   xmlns:sodipodi="http://sodipodi.sourceforge.net/DTD/sodipodi-0.dtd"
   xmlns:inkscape="http://www.inkscape.org/namespaces/inkscape"
   width="640"
   height="128"
   viewBox="0 0 640.00001 128"
   id="svg2"
   version="1.1"
   inkscape:version="0.91 r13725"
   sodipodi:docname="flags.svg">
  <defs
     id="defs4" />
  <sodipodi:namedview
     id="base"
     pagecolor="#ffffff"
     bordercolor="#666666"
     borderopacity="1.0"
     inkscape:pageopacity="0.0"
     inkscape:pageshadow="2"
     inkscape:zoom="1.4"
     inkscape:cx="198.16199"
     inkscape:cy="10.567987"
     inkscape:document-units="px"
     inkscape:current-layer="layer1"
     showgrid="true"
     units="px"
     showborder="true"
     inkscape:window-width="1366"
     inkscape:window-height="706"
     inkscape:window-x="-8"
     inkscape:window-y="-8"
     inkscape:window-maximized="1">
    <inkscape:grid
       type="xygrid"
       id="grid4684"
       spacingx="64.000001"
       spacingy="64"
       empspacing="5" />
  </sodipodi:namedview>
  <metadata
     id="metadata7">
    <rdf:RDF>
      <cc:Work
         rdf:about="">
        <dc:format>image/svg+xml</dc:format>
        <dc:type
           rdf:resource="http://purl.org/dc/dcmitype/StillImage" />
        <dc:title></dc:title>
      </cc:Work>
    </rdf:RDF>
  </metadata>
  <g
     inkscape:label="Layer 1"
     inkscape:groupmode="layer"
     id="layer1"
     transform="translate(0,-924.36216)">
    <path
       d="M 0,0 0,128 M 64,0 64,128 M 128,0 128,128 M 192,0 192,128 M 256,0 256,128 M 320,0 320,128 M 384,0 384,128 M 448,0 448,128 M 512,0 512,128 M 576,0 576,128 M 640,0 640,128 M 0,0 640,0 M 0,62 640,62 m -640,62 640,0"
       style="fill:none;fill-opacity:0.75000000;fill-rule:evenodd;stroke:#000000;stroke-linecap:butt;stroke-linejoin:miter;stroke-opacity:1.0000000;stroke-width:1pt"
       id="path4692" />
    <path
       d="m 1.4285715,926.42857 0,127.99993 m 64.0000005,-127.99993 0,127.99993 m 63.999998,-127.99993 0,127.99993 m 64,-127.99993 0,127.99993 m 64,-127.99993 0,127.99993 m 64,-127.99993 0,127.99993 m 64,-127.99993 0,127.99993 m 64,-127.99993 0,127.99993 m 64,-127.99993 0,127.99993 m 64,-127.99993 0,127.99993 m 64,-127.99993 0,127.99993 M 1.4285715,926.42857 l 639.9999985,0 m -639.9999985,64 639.9999985,0 m -639.9999985,63.99993 639.9999985,0"
       style="fill:#ff0000;fill-opacity:0.75;fill-rule:evenodd;stroke:#000000;stroke-width:1pt;stroke-linecap:butt;stroke-linejoin:miter;stroke-opacity:1"
       id="path4694"
       inkscape:connector-curvature="0" />
    <path
       style="fill:none;fill-opacity:1;stroke:none;stroke-width:1.39999998;stroke-miterlimit:4;stroke-dasharray:none;stroke-opacity:1"
       d="m 258.16199,33.789156 0,-31.0714286 31.07143,0 31.07143,0 0,31.0714286 0,31.071429 -31.07143,0 -31.07143,0 0,-31.071429 z"
       id="path4704"
       inkscape:connector-curvature="0"
       transform="translate(0,924.36216)" />
    <path
       style="fill:#ffff00;fill-opacity:1;stroke:none;stroke-width:1.39999998;stroke-miterlimit:4;stroke-dasharray:none;stroke-opacity:1"
       d="m 258.16199,33.789156 0,-31.0714286 31.07143,0 31.07143,0 0,31.0714286 0,31.071429 -31.07143,0 -31.07143,0 0,-31.071429 z"
       id="path4706"
       inkscape:connector-curvature="0"
       transform="translate(0,924.36216)" />
    <path
       style="fill:#ff0000;fill-opacity:1;stroke:none;stroke-width:1.39999998;stroke-miterlimit:4;stroke-dasharray:none;stroke-opacity:1"
       d="m 66.73342,33.789156 0,-31.0714286 30.714286,0 30.714284,0 0,31.0714286 0,31.071429 -30.714284,0 -30.714286,0 0,-31.071429 z"
       id="path4708"
       inkscape:connector-curvature="0"
       transform="translate(0,924.36216)" />
    <path
       style="fill:#000080;fill-opacity:1;stroke:none;stroke-width:1.39999998;stroke-miterlimit:4;stroke-dasharray:none;stroke-opacity:1"
       d="m 130.30485,33.789156 0,-31.0714286 31.07143,0 31.07143,0 0,31.0714286 0,31.071429 -31.07143,0 -31.07143,0 0,-31.071429 z"
       id="path4710"
       inkscape:connector-curvature="0"
       transform="translate(0,924.36216)" />
    <path
       style="fill:#00ff00;fill-opacity:1;stroke:none;stroke-width:1.39999998;stroke-miterlimit:4;stroke-dasharray:none;stroke-opacity:1"
       d="m 194.59056,33.789156 0,-31.0714286 31.07143,0 31.07143,0 0,31.0714286 0,31.071429 -31.07143,0 -31.07143,0 0,-31.071429 z"
       id="path4712"
       inkscape:connector-curvature="0"
       transform="translate(0,924.36216)" />
    <path
       sodipodi:type="star"
       style="fill:none;fill-opacity:1;stroke:#000000;stroke-width:1.39999998;stroke-miterlimit:4;stroke-dasharray:none;stroke-opacity:1"
       id="path4714"
       sodipodi:sides="5"
       sodipodi:cx="320"
       sodipodi:cy="924.36218"
       sodipodi:r1="64"
       sodipodi:r2="32"
       sodipodi:arg1="1.5707963"
       sodipodi:arg2="2.1991149"
       inkscape:flatsided="false"
       inkscape:rounded="0"
       inkscape:randomized="0"
       d="m 320,988.36218 -18.80913,-38.11145 -42.05849,-6.11146 30.43381,-29.66563 -7.18445,-41.88854 37.61826,19.77708 37.61825,-19.77709 -7.18444,41.88855 30.43381,29.66563 -42.05849,6.11146 z"
       inkscape:transform-center-y="-2.9228554"
       transform="matrix(0.40544866,-0.33309553,0.3489003,0.42468645,-98.325231,675.06966)"
       inkscape:transform-center-x="0.86918303" />
    <circle
       style="fill:none;fill-opacity:1;stroke:#800000;stroke-width:1.39999998;stroke-miterlimit:4;stroke-dasharray:none;stroke-opacity:1"
       id="path4740"
       cx="417.42856"
       cy="957.79077"
       r="32" />
  </g>
</svg>
